<?xml version="1.0" encoding="utf-8"?>
<!-- Generator: Adobe Illustrator 24.3.0, SVG Export Plug-In . SVG Version: 6.00 Build 0)  -->
<svg version="1.1" id="圖層_1" xmlns="http://www.w3.org/2000/svg" xmlns:xlink="http://www.w3.org/1999/xlink" x="0px" y="0px"
	 viewBox="0 0 704.2 44.1" style="enable-background:new 0 0 704.2 44.1;" xml:space="preserve">
<style type="text/css">
	.st0{fill:#211E1E;}
</style>
<g>
	<g>
		<path class="st0" d="M30.3,6l-1.3,2.9c-0.6,2-2,3.1-4.2,3.1h-1.1h-2h-6c-2,0-3.3-1.3-3.8-3.8L11,5.9H8.9L7.9,8.6
			c-0.7,2.2-2.2,3.3-4.5,3.3h-3.6l-1.1-5.4H0C1,6.3,1.5,5.8,1.6,5l2-5.2h7.6l-0.7,1.4h10.8v4.7h-2.9l0.2,0.7
			c0.1,0.7,0.5,1.1,1.3,1.1h0.9h0.7c0.2,0,0.4,0,0.5,0c0.5-0.2,0.8-0.7,0.9-1.4l2.3-6.5h7.6l-0.7,1.6H43V6h-3.1l0.2,0.5
			c0.1,0.7,0.5,1.1,1.3,1.1H43V12h-5.2c-2.2-0.1-3.5-1.3-4-3.6L33.1,6H30.3z M12.5,36.4l-2.3,4.2C9,42.8,7.5,44,5.6,44h-5.8
			l-1.1-5.1h2.3c1.3-0.1,2.2-0.6,2.5-1.4l0.5-1.1H12.5z M-0.2,18.7v-5.4h34.7h3.8h3.8v9c-0.1,3-1.6,4.5-4.5,4.5H24.7v2.7h9.8h3.8
			h3.8v9.9c-0.1,3-1.6,4.5-4.5,4.5h-8.5l-0.9-5.4h5.2c0.7,0,1.1-0.4,1.1-1.1v-2.5h-9.8v9h-7.6v-9H0v-2.7v-2.7v-8.1h3.8h3.6h9.8v-2.7
			H-0.2z M17.2,26.8H7.4v2.7h9.8V26.8z M24.7,21.4h8.7c0.7,0,1.1-0.4,1.1-1.1v-1.6h-9.8V21.4z"/>
		<path class="st0" d="M93.9,37.8V44H49.6v-6.1H93.9z M92.2,1.3v6.1H51.4V1.3H92.2z"/>
		<path class="st0" d="M109.9,39.5c-0.1,3-1.6,4.5-4.5,4.5h-4l-0.9-6.1h0.7c0.7,0,1.1-0.4,1.1-1.1V6.2V3.3V0.4h33.8h3.8h3.8v10.7
			c-0.1,3-1.6,4.5-4.5,4.5h-29.3V39.5z M135,9.8c0.7,0,1.1-0.4,1.1-1.1V6.2h-26.2v3.6H135z M136.8,36.6v-19h7.2v22.6
			c0,2.5-1.3,3.8-3.8,3.8h-28.7v-2.9v-2.9V17.6h7.2v20.6h16.4C136.2,38.2,136.8,37.7,136.8,36.6z M135.1,31v5.4h-14.5V31h3.4v-6
			h-3.8v-5.4h3.8v-2.3h7.4v2.3h4.2V25h-4.2v6H135.1z"/>
		<path class="st0" d="M191.8,1c-5.1,6.4-7.6,13.4-7.6,21c0,7.7,2.6,14.6,7.8,20.8h-12.6V1H191.8z"/>
		<path class="st0" d="M220.3,38.2h-17.2v-3.6h17.2v-1.8h-3.6h-12.8v-2l6.1-3.3h-5.8v-1.8h-2v-2.3v-1.8v-1.8h36.3h4h3.8v6.3h-1.8
			v1.4h-23.8l-4,2.3h18.8c1.2,0,1.7-0.2,1.6-0.5l-0.7-0.4h7.2l0.9,0.7c0.6,2,0,3.1-1.8,3.1h-14.3v1.8h17.2v3.6h-17.2v1.4h18.2v4.2
			h-44.4v-4.2h18.1V38.2z M245.5,6v2.7h-42.3V6h17V4.6h-17.9V1h17.9v-1.3h8.1V1h17.9v3.6h-17.9V6H245.5z M203.6,15.3v-5.1h4h4h25.5
			h4h4V14c-0.1,3-1.6,4.5-4.5,4.5h-36.8v-1.6V15.3z M238.5,25v-1.6H210V25H238.5z M236,15.3c0.7,0,1.1-0.4,1.1-1.1v-0.7h-25.5v1.8
			H236z"/>
		<path class="st0" d="M264.1,26.1L261.7,40c-0.6,2.6-2.2,4-4.9,4H254l-1.1-6.1h0.9c0.6,0,1-0.4,1.1-1.3l1.8-10.5H264.1z M261.2,3.9
			c0.2,0.7,0.8,1.1,1.6,1.1h0.5v6.1h-3.8c-2.4-0.1-4-1.4-4.7-4l-1.4-6.7h6.9L261.2,3.9z M261.2,16.5c0.2,0.7,0.8,1.1,1.6,1.1h0.5
			v6.1h-3.8c-2.4-0.1-4-1.4-4.7-4l-1.3-6.7h6.9L261.2,16.5z M267,14.9v4.5c0,0.5-0.2,0.9-0.5,1.3c-0.5,0.5-1,0.7-1.4,0.7h-0.5
			l-0.5-3.6h0.5c0.2-0.1,0.4-0.2,0.5-0.2c0.1-0.2,0.2-0.4,0.2-0.5v-2.2H267z M272.4,13.8v8.5h-4.5v-8.5H265v-4l3.4-2.7H265V3.5
			l3.1-3.1h6.5l-3.1,3.1h3.4v3.6l-3.4,3.1h1.3c0.5-0.1,0.7-0.4,0.7-0.7V8.9h2.2v1.6C275.6,12.7,274.6,13.8,272.4,13.8z M287.6,40.4
			c0.7,0,1.1-0.4,1.1-1.1v-0.7h-23.1v-1.8v-1.8v-5.4h4h4h14.1c0.7,0,1.1-0.4,1.1-1.1v-0.7h-23.1v-4h23.1h4h4v4.9
			c-0.1,3-1.6,4.5-4.5,4.5h-18.6v1.8h15.2h4h4v4.5c-0.1,3-1.6,4.5-4.5,4.5h-26l-0.9-3.6H287.6z M274.9,14.9v6h-1.8v-6H274.9z
			 M277.6-0.3h6.1v1.6h1.8v3.3h-9.8V1.3h1.8V-0.3z M276.5,19V14h1.6h1.6h2.2h1.6h1.6v3.8c-0.1,3-1.6,4.5-4.5,4.5h-4.2v-1.6V19z
			 M285.2,5.9v2.9h-8.5V5.9H285.2z M285,9.8v2.9h-8.3V9.8H285z M280.9,19c0.7,0,1.1-0.4,1.1-1.1v-0.7h-2.2V19H280.9z M288.5,14.7
			v4.7c0,0.5-0.2,0.9-0.5,1.3c-0.5,0.5-1,0.7-1.4,0.7h-0.4l-0.5-3.6h0.4c0.2-0.1,0.4-0.2,0.5-0.2c0.1-0.2,0.2-0.4,0.2-0.5v-2.3
			H288.5z M293.7,13.8v8.5h-4.5v-8.5h-2.9v-4l3.6-2.7h-3.6V3.5l3.1-3.3h6.5l-3.1,3.3h3.6v3.6l-3.6,3.1h1.3c0.5-0.1,0.7-0.4,0.7-0.7
			V8.8h2.2v1.8C297,12.7,295.9,13.8,293.7,13.8z M296.4,14.5v6.7h-1.8v-6.7H296.4z"/>
		<path class="st0" d="M313,40.4c-0.8,2.4-1.9,3.6-3.1,3.6h-5.2l-0.9-6.1h1.4c0.5-0.1,0.9-0.6,1.3-1.4l3.3-12.8V-0.3h7.6v25.1
			l-0.5,2h2.7l2.2,9.9c0.2,0.7,0.8,1.1,1.6,1.1h0.7V44h-4c-2.4-0.1-4-1.4-4.7-4l-1.1-4.7L313,40.4z M306.8,1.9l0.9,13.9
			c0.1,0.5,0.4,0.7,0.7,0.7h0.2v5.8h-0.5c-2.2-0.1-3.3-1.1-3.4-3.1l-0.7-17.3H306.8z M323.1,1.9L322.7,19c-0.2,2.2-1.3,3.3-3.1,3.3
			h-0.7l-0.9-5.8h0.7c0.5,0,0.8-0.2,0.9-0.5l0.5-14.1H323.1z M330.1,1.9L329,21.9c-0.1,2.6-1.1,4-2.9,4h-1.8l-0.9-6.1h0.9
			c0.6,0,0.9-0.4,0.9-1.1l0.5-16.8H330.1z M348.2,27.9l-6.7,12.3c-1.2,2.5-3.1,3.8-5.6,3.8h-9.6l-1.1-6.1h7.6
			c1.1-0.1,1.8-0.6,2.2-1.4l5.2-8.5H348.2z M339.7-0.3v26.2c-0.1,1.2-0.5,2.2-1.3,3.1c-0.8,1.1-2,1.6-3.4,1.6h-4.5l-1.1-6.1h1.1
			c0.5,0,0.9-0.2,1.3-0.5c0.2-0.4,0.4-0.7,0.4-1.1V-0.3H339.7z M346,1.9l0.4,16.8c0.1,0.7,0.4,1.1,0.7,1.1h0.9v6.1h-3.1
			c-1.7-0.1-2.5-1.1-2.5-3.1l-1.1-21H346z"/>
		<path class="st0" d="M373.6,18.3v7c-0.1,3-1.6,4.5-4.5,4.5h-5.8v2h9.8v5.1h-9.8v2h9.9V44h-9.9h-7.2v-5.1V14.7h-1.3V8.9h0.2
			c0.7-0.1,1.1-0.4,1.3-0.9l2-7.6h13.2v0.2l1.8,7.4c0.1,0.6,0.5,0.9,1.3,0.9h0.4v5.8h-1.3V18.3z M367.1,12H362
			c-0.2,0.8-0.7,1.5-1.4,2h5.8h2.2C367.9,13.5,367.4,12.8,367.1,12z M366.2,6.2h-2.9l-0.5,2.5h3.8L366.2,6.2z M366.4,18.3h-3.1v2
			h3.1V18.3z M366.4,23.6h-3.1v2h2c0.7,0,1.1-0.4,1.1-1.1V23.6z M375.6,36.8V0.4h3.8h3.8h15.7v6.1h-15.7v4.9h15.2v6.9L394,31.5
			l2.2,5.2c0.4,0.7,0.9,1.1,1.6,1.1h1.3V44h-2c-2.8-0.1-4.9-1.1-6.3-2.9c-1.1,1.9-2.7,2.9-4.9,2.9h-2.3l-0.5-3.3
			c-0.4,2.2-1.8,3.3-4.3,3.3h-3.8l-0.9-6.1h0.5C375.2,37.8,375.6,37.5,375.6,36.8z M383.2,20.5h6.3l0.5,1.4l1.4-4.3h-8.3V20.5z
			 M383.2,37.8h0.5c0.8,0,1.4-0.4,1.8-1.3l1.4-4.5l-3.8-9.2V37.8z"/>
		<path class="st0" d="M449.7,37.7v6.1h-43.9v-6.1h18.2V25.4h-16.4v-6.1h16.4V7.3h-17.2V1.2h41.9v6.1h-17.2v11.9h16.3v6.1h-16.3
			v12.3H449.7z"/>
		<path class="st0" d="M473,1v41.7h-12.6c5.2-7,7.8-13.9,7.8-20.8c0-4.1-0.9-8.4-2.7-12.8c-1.2-3.3-2.9-6-5.1-8.1H473z"/>
		<path class="st0" d="M517.5,33.1l-2,7.6c-0.6,2.2-2.2,3.3-4.7,3.3h-2.7l-1.1-6.1h0.7c0.8,0,1.4-0.4,1.8-1.3l0.7-3.4h-2v-2.9v-2.9
			v-8.9h3.6h3.6h6h3.6h3.6v10.1c0,1.9-0.7,3.3-2.2,4v4.2c0,0.7,0.4,1.1,1.1,1.1h1.3V44h-5.2c-3-0.1-4.5-1.6-4.5-4.5v-6.3H517.5z
			 M509.4,6.9h-1.3V1.5h6.9v-1.6h7.6v1.6h6.1v5.4h-1.6l-1.3,4.2h3.3v5.8h-21.5v-5.8h2.9L509.4,6.9z M520.4,27.4
			c0.7,0,1.1-0.4,1.1-1.1v-2h-6v3.1H520.4z M519,11.1l1.3-4.2h-3.8l0.9,4.2H519z M540.4,33.1l-2,7.6c-0.6,2.2-2.2,3.3-4.7,3.3h-2.9
			l-1.1-6.1h0.9c0.8,0,1.4-0.4,1.8-1.3l0.7-3.4h-2.2v-2.9v-2.9v-8.9h3.6h3.6h5.4h3.6h3.6v10.1c0,1.8-0.5,3.1-1.6,3.8v4.3
			c0,0.7,0.4,1.1,1.1,1.1h1.3V44h-5.2c-3-0.1-4.5-1.6-4.5-4.5v-6.3H540.4z M532.5,6.9h-1.3V1.5h6.5v-1.6h7.6v1.6h6v5.4h-1.1
			l-0.9,4.2h2.3v5.8h-20.6v-5.8h2.5L532.5,6.9z M542.6,27.4c0.7,0,1.1-0.4,1.1-1.1v-2h-5.4v3.1H542.6z M542.3,11.1l0.9-4.2h-3.6
			l0.9,4.2H542.3z"/>
		<path class="st0" d="M576.9,39.6l-0.9,1.1c-1.4,2.2-3.4,3.3-6,3.3h-10.8l-1.1-2.9h7.8c0.8,0,1.5-0.4,2-1.3l0.2-0.2h-8.1V38v-1.6
			V25.6h-0.7l-1.1-2.9h1.8h2c0.8-0.1,1.5-0.5,2-1.3l0.2-0.2h-4.9v-3.6h7.9v-1.8h-7.8v-2.9h7.8v-1.6h-7.8V8h7.8V6.2h7.6V8h11.4V6.2
			h7.6V8h7.8v3.3h-7.8v1.6h7.8v2.9h-7.8v1.8h7.9v3.6h-5.1l0.5,0.5c0.5,0.6,1.1,0.9,2,0.9h1.8h1.6v2.9h-1.6v9.6
			c-0.1,3-1.6,4.5-4.5,4.5h-3.4l0.4,0.5c0.5,0.6,1.1,0.9,2,0.9h7.2V44h-12.8c-2-0.1-3.5-0.7-4.3-1.8l-1.6-2.5H576.9z M594.6,0.8h3.8
			h3.8v5.8h-7.6V5.1h-28.4v1.4h-7.6V5.1V3V0.8h18.1v-1.1h7.6v1.1H594.6z M593.3,27.9v-2h-25.8v2H593.3z M593.3,32.2v-1.8h-25.8v1.8
			H593.3z M567.5,34.8v1.6h24.7c0.7,0,1.1-0.4,1.1-1.1v-0.5H567.5z M588.4,22.7l-1.1-1.4h-14.5l-0.9,1.1c-0.1,0.1-0.2,0.2-0.4,0.4
			H588.4z M586.1,11.3h-11.4v1.6h11.4V11.3z M586.1,15.8h-11.4v1.8h11.4V15.8z"/>
		<path class="st0" d="M640.2,4.8l-1.1,2.3c-1.4,1.7-3.3,2.6-5.6,2.7h-3.3h-3.6c-2.2,0-3.7-0.5-4.5-1.6l-1.8-3.6H618l-0.7,1.8
			c-0.7,2-2.2,3.1-4.5,3.1h-2.9l-1.1-5.1h0.9c0.7,0,1.3-0.4,1.6-1.3l1.3-3.3h7.2L619.2,1h11.9v3.6h-3.3l0.7,1.3
			c0.2,0.4,0.7,0.6,1.4,0.7h0.7c0.7-0.1,1.3-0.4,1.8-0.9l2.2-5.8h7.6l-0.7,1.3h11.7v3.6h-3.8l0.7,1.3c0.5,0.5,1.1,0.7,2,0.7h1.1V10
			h-5.1c-2.2,0-3.7-0.5-4.5-1.6L642,4.8H640.2z M617.8,26.6V44h-7.4V15.3v-2v-2.2h12.3h3.8h3.6v11.2c0,2.9-1.4,4.3-4.3,4.3H617.8z
			 M622.7,17.2v-2h-4.9v2H622.7z M617.8,20.5v2h3.8c0.7,0,1.1-0.4,1.1-1.1v-0.9H617.8z M619.6,38.9V28.4h3.6h3.6h8.9h3.6h3.6V38
			c0,0.1-0.1,0.2-0.2,0.2h0.9c0.7,0,1.1-0.4,1.1-1.1V26.6h-12.3v-2v-2.2v-7.2v-2v-2.2h12.3h3.8h3.6v28.4c0,3-1.4,4.5-4.3,4.5h-4.5
			l-0.7-4.2c-0.5,1.8-1.9,2.7-4.2,2.7h-18.8v-1.8V38.9z M635.7,33.9v-1.8h-8.9v1.8H635.7z M626.8,37.1v1.8h7.8
			c0.7,0,1.1-0.4,1.1-1.1v-0.7H626.8z M644.7,17.2v-2h-4.9v2H644.7z M639.8,20.5v2h4.9v-2H639.8z"/>
		<path class="st0" d="M660,41.1v-5.4h18.2v-2h-16.6v-2.3V29V16.9h3.8h3.8H695h3.8h3.8v12.3c-0.1,3-1.6,4.5-4.5,4.5H686v2h18.2v5.4
			H686V44h-7.8v-2.9H660z M667.9,7.1h-6.9V1.7h17.3v-2h7.6v2h17.3v5.4h-6.9l-1.3,2.7h8.9v5.4h-43.9V9.8h8.7L667.9,7.1z M695,23.4
			v-1.8h-25.8v1.8H695z M669.2,27.2V29h24.7c0.7,0,1.1-0.4,1.1-1.1v-0.7H669.2z M686.9,9.8l1.3-2.7h-11.9l0.9,2.7H686.9z"/>
	</g>
</g>
</svg>
