<?xml version="1.0" encoding="utf-8"?>
<!-- Generator: Adobe Illustrator 16.0.0, SVG Export Plug-In . SVG Version: 6.00 Build 0)  -->
<!DOCTYPE svg PUBLIC "-//W3C//DTD SVG 1.1//EN" "http://www.w3.org/Graphics/SVG/1.1/DTD/svg11.dtd">
<svg version="1.1" id="圖層_1" xmlns="http://www.w3.org/2000/svg" xmlns:xlink="http://www.w3.org/1999/xlink" x="0px" y="0px"
	 width="22.409px" height="22.409px" viewBox="0 0 22.409 22.409" enable-background="new 0 0 22.409 22.409" xml:space="preserve">
<rect fill="#701419" width="22.409" height="22.409"/>
<g>
</g>
<g>
	<path fill="#FFFFFF" d="M16.484,14.208c0.096,0,0.144,0.06,0.144,0.181v0.467c0,0.168-0.048,0.24-0.144,0.24H6.087
		c-0.096,0-0.145-0.072-0.145-0.24v-0.467c0-0.121,0.049-0.181,0.145-0.181H16.484z"/>
	<path fill="#FFFFFF" d="M15.667,7.278c0.103,0,0.155,0.077,0.155,0.206v0.504c0,0.18-0.053,0.258-0.155,0.258H6.903
		c-0.104,0-0.154-0.078-0.154-0.258V7.484c0-0.129,0.051-0.206,0.154-0.206H15.667z"/>
	<path fill="#FFFFFF" d="M15.027,10.757c0.088,0,0.133,0.071,0.133,0.191v0.468c0,0.168-0.045,0.24-0.133,0.24H7.543
		c-0.089,0-0.133-0.072-0.133-0.24v-0.468c0-0.12,0.044-0.191,0.133-0.191H15.027z"/>
</g>
</svg>
