<?xml version="1.0" encoding="utf-8"?>
<!-- Generator: Adobe Illustrator 24.3.0, SVG Export Plug-In . SVG Version: 6.00 Build 0)  -->
<svg version="1.1" id="圖層_1" xmlns="http://www.w3.org/2000/svg" xmlns:xlink="http://www.w3.org/1999/xlink" x="0px" y="0px"
	 viewBox="0 0 187.4 40.9" style="enable-background:new 0 0 187.4 40.9;" xml:space="preserve">
<style type="text/css">
	.st0{fill:url(#SVGID_1_);}
	.st1{fill:#701419;}
	.st2{fill:#FFFFFF;}
	.st3{fill:url(#SVGID_2_);}
	.st4{fill:url(#SVGID_3_);}
	.st5{fill:url(#SVGID_4_);}
</style>
<g>
	<linearGradient id="SVGID_1_" gradientUnits="userSpaceOnUse" x1="-1.023665e-04" y1="20.4473" x2="40.488" y2="20.4473">
		<stop  offset="0" style="stop-color:#533015"/>
		<stop  offset="9.523810e-02" style="stop-color:#66431E"/>
		<stop  offset="0.2944" style="stop-color:#9A773C"/>
		<stop  offset="0.3939" style="stop-color:#DEC471"/>
		<stop  offset="0.5152" style="stop-color:#F8EFD4"/>
		<stop  offset="0.6147" style="stop-color:#DEC471"/>
		<stop  offset="0.8095" style="stop-color:#9A773C"/>
		<stop  offset="1" style="stop-color:#533015"/>
	</linearGradient>
	<circle class="st0" cx="20.2" cy="20.4" r="20.2"/>
	<ellipse transform="matrix(0.7071 -0.7071 0.7071 0.7071 -8.5291 20.3035)" class="st1" cx="20.2" cy="20.4" rx="18" ry="18"/>
	<g>
		<path class="st2" d="M12.9,17.7l-2,2.5c-1.1-1.1-2.3-2-3.4-2.8l2.1-2.2C10.8,15.9,11.9,16.7,12.9,17.7z M14,22.8
			c-0.9,3.9-2,7.2-3.1,9.8L8,31.1c1.3-3.1,2.4-6.1,3.1-9.2L14,22.8z M15.1,11.5l-2,2.5c-1-1.1-2-2-3.1-2.7l2-2.1
			C13.1,9.9,14.1,10.6,15.1,11.5z M29.9,11.8c-1.8,0.3-3.6,0.5-5.6,0.8V16H31v2.8h-6.7v3.1h5.6v10.5H27v-0.8h-8.4v0.9h-2.9V21.9h5.5
			v-3.1h-6.8V16h6.8v-3.1c-1.6,0.2-3.1,0.3-4.8,0.4l-1-2.9c4.7-0.3,9.1-0.7,13.2-1.2L29.9,11.8z M27,28.7v-4h-8.4v4H27z"/>
	</g>
	<linearGradient id="SVGID_2_" gradientUnits="userSpaceOnUse" x1="48.9552" y1="20.4473" x2="89.4434" y2="20.4473">
		<stop  offset="0" style="stop-color:#533015"/>
		<stop  offset="9.523810e-02" style="stop-color:#66431E"/>
		<stop  offset="0.2944" style="stop-color:#9A773C"/>
		<stop  offset="0.3939" style="stop-color:#DEC471"/>
		<stop  offset="0.5152" style="stop-color:#F8EFD4"/>
		<stop  offset="0.6147" style="stop-color:#DEC471"/>
		<stop  offset="0.8095" style="stop-color:#9A773C"/>
		<stop  offset="1" style="stop-color:#533015"/>
	</linearGradient>
	<circle class="st3" cx="69.2" cy="20.4" r="20.2"/>
	<ellipse transform="matrix(0.9239 -0.3827 0.3827 0.9239 -2.5574 28.0379)" class="st1" cx="69.2" cy="20.4" rx="18" ry="18"/>
	<g>
		<path class="st2" d="M70.6,11.3c-1.7,0.2-3.4,0.4-5.2,0.6V13h5.2v2.5h-5.2v0.6h4.8V25h-4.8v0.8h4.4v2.4h-4.4v0.8
			c1.6-0.1,3-0.2,4.2-0.2l0.2,0.9c1.1-1.3,1.9-3,2.5-4.9c0.6-2,1-4.7,1.1-8.2h-2.4v-2.7h2.4V9.2h3v4.7h4.1c-0.1,7.1-0.3,12.4-0.9,16
			c-0.2,0.8-0.5,1.5-1.1,1.9c-0.6,0.4-1.3,0.7-2.2,0.7c-0.6,0-1.3-0.1-2-0.3l-0.3-2.8c0.9,0.3,1.7,0.5,2.3,0.5
			c0.2,0,0.4-0.1,0.5-0.4c0.1-0.2,0.2-0.8,0.3-1.8c0.3-3.4,0.4-7.1,0.4-11h-1.2c-0.1,4.1-0.6,7.4-1.5,10c-0.8,2.3-1.9,4.2-3.5,5.7
			L70,30.7l0.1,0.5c-3.6,0.4-7.7,0.7-12.1,1l-0.5-2.8c1.9-0.1,3.6-0.1,5.3-0.2v-0.9h-4.9v-2.4h4.9V25h-4.9v-8.8h4.9v-0.6h-5.4V13
			h5.4v-0.9c-1.4,0.1-2.9,0.2-4.4,0.3L57.5,10c4.3-0.2,8.3-0.6,11.9-1L70.6,11.3z M62.7,19.4v-0.7h-2.2v0.7H62.7z M62.7,22.5v-0.7
			h-2.2v0.7H62.7z M65.5,19.4h2.1v-0.7h-2.1V19.4z M65.5,22.5h2.1v-0.7h-2.1V22.5z"/>
	</g>
	<linearGradient id="SVGID_3_" gradientUnits="userSpaceOnUse" x1="97.9106" y1="20.4473" x2="138.3988" y2="20.4473">
		<stop  offset="0" style="stop-color:#533015"/>
		<stop  offset="9.523810e-02" style="stop-color:#66431E"/>
		<stop  offset="0.2944" style="stop-color:#9A773C"/>
		<stop  offset="0.3939" style="stop-color:#DEC471"/>
		<stop  offset="0.5152" style="stop-color:#F8EFD4"/>
		<stop  offset="0.6147" style="stop-color:#DEC471"/>
		<stop  offset="0.8095" style="stop-color:#9A773C"/>
		<stop  offset="1" style="stop-color:#533015"/>
	</linearGradient>
	<circle class="st4" cx="118.2" cy="20.4" r="20.2"/>
	<ellipse transform="matrix(0.9871 -0.1602 0.1602 0.9871 -1.7496 19.1901)" class="st1" cx="118.2" cy="20.4" rx="18" ry="18"/>
	<g>
		<path class="st2" d="M128,16.9v9.3h-8.6v1h9.8v2.7h-9.8v2.6h-2.9v-2.6h-9.8v-2.7h9.8v-1h-8.2v-9.3H128z M117,9.7v6.5h-9.6V9.7H117
			z M114.2,13.5v-1.2h-3.9v1.2H114.2z M116.4,20.3v-0.8h-5.3v0.8H116.4z M116.4,23.6v-0.8h-5.3v0.8H116.4z M128.5,9.7v6.5h-10.3V9.7
			H128.5z M119.4,20.3h5.7v-0.8h-5.7V20.3z M119.4,23.6h5.7v-0.8h-5.7V23.6z M125.6,13.5v-1.2H121v1.2H125.6z"/>
	</g>
	<linearGradient id="SVGID_4_" gradientUnits="userSpaceOnUse" x1="146.8659" y1="20.4473" x2="187.3541" y2="20.4473">
		<stop  offset="0" style="stop-color:#533015"/>
		<stop  offset="9.523810e-02" style="stop-color:#66431E"/>
		<stop  offset="0.2944" style="stop-color:#9A773C"/>
		<stop  offset="0.3939" style="stop-color:#DEC471"/>
		<stop  offset="0.5152" style="stop-color:#F8EFD4"/>
		<stop  offset="0.6147" style="stop-color:#DEC471"/>
		<stop  offset="0.8095" style="stop-color:#9A773C"/>
		<stop  offset="1" style="stop-color:#533015"/>
	</linearGradient>
	<circle class="st5" cx="167.1" cy="20.4" r="20.2"/>
	<ellipse transform="matrix(0.9239 -0.3827 0.3827 0.9239 4.8957 65.5067)" class="st1" cx="167.1" cy="20.4" rx="18" ry="18"/>
	<g>
		<path class="st2" d="M163.3,10.1c-0.5,1.6-1.1,3.2-1.8,4.7v17.6h-3V20.3c-0.6,0.9-1.1,1.6-1.7,2.4l-1.6-3
			c2.4-3.3,4.1-6.8,5.2-10.4L163.3,10.1z M176.6,17.6c-0.9,4.3-1.9,8.1-2.9,11.3h4.8v2.8h-16.6v-2.8h8.6c1.1-3.9,2.1-8,2.9-12.3
			L176.6,17.6z M172,9.3v3.7h6.3v2.8h-15.6v-2.8h6.3V9.3H172z M168.9,27.2l-3,0.8c-0.4-3.5-1-6.8-2-9.9l3-0.7
			C168,20.6,168.6,23.9,168.9,27.2z"/>
	</g>
</g>
</svg>
