<?xml version="1.0" encoding="utf-8"?>
<!-- Generator: Adobe Illustrator 24.3.0, SVG Export Plug-In . SVG Version: 6.00 Build 0)  -->
<svg version="1.1" id="圖層_1" xmlns="http://www.w3.org/2000/svg" xmlns:xlink="http://www.w3.org/1999/xlink" x="0px" y="0px"
	 viewBox="0 0 187.4 40.5" style="enable-background:new 0 0 187.4 40.5;" xml:space="preserve">
<style type="text/css">
	.st0{fill:url(#SVGID_1_);}
	.st1{fill:#701419;}
	.st2{fill:#FFFFFF;}
	.st3{fill:url(#SVGID_2_);}
	.st4{fill:url(#SVGID_3_);}
	.st5{fill:url(#SVGID_4_);}
</style>
<g>
	<linearGradient id="SVGID_1_" gradientUnits="userSpaceOnUse" x1="-1.023665e-04" y1="20.2442" x2="40.488" y2="20.2442">
		<stop  offset="0" style="stop-color:#533015"/>
		<stop  offset="9.523810e-02" style="stop-color:#66431E"/>
		<stop  offset="0.2944" style="stop-color:#9A773C"/>
		<stop  offset="0.3939" style="stop-color:#DEC471"/>
		<stop  offset="0.5152" style="stop-color:#F8EFD4"/>
		<stop  offset="0.6147" style="stop-color:#DEC471"/>
		<stop  offset="0.8095" style="stop-color:#9A773C"/>
		<stop  offset="1" style="stop-color:#533015"/>
	</linearGradient>
	<circle class="st0" cx="20.2" cy="20.2" r="20.2"/>
	<ellipse transform="matrix(0.7071 -0.7071 0.7071 0.7071 -8.3855 20.244)" class="st1" cx="20.2" cy="20.2" rx="18" ry="18"/>
	<g>
		<path class="st2" d="M12.9,17.5l-2,2.5c-1.1-1.1-2.3-2-3.4-2.8L9.6,15C10.8,15.7,11.9,16.5,12.9,17.5z M14,22.6
			c-0.9,3.9-2,7.2-3.1,9.8L8,30.8c1.3-3.1,2.4-6.1,3.1-9.2L14,22.6z M15.1,11.3l-2,2.5c-1-1.1-2-2-3.1-2.7l2-2.1
			C13.1,9.7,14.1,10.4,15.1,11.3z M29.9,11.6c-1.8,0.3-3.6,0.5-5.6,0.8v3.4H31v2.8h-6.7v3.1h5.6v10.5H27v-0.8h-8.4v0.9h-2.9V21.7
			h5.5v-3.1h-6.8v-2.8h6.8v-3.1c-1.6,0.2-3.1,0.3-4.8,0.4l-1-2.9c4.7-0.3,9.1-0.7,13.2-1.2L29.9,11.6z M27,28.5v-4h-8.4v4H27z"/>
	</g>
	<linearGradient id="SVGID_2_" gradientUnits="userSpaceOnUse" x1="48.9552" y1="20.2442" x2="89.4434" y2="20.2442">
		<stop  offset="0" style="stop-color:#533015"/>
		<stop  offset="9.523810e-02" style="stop-color:#66431E"/>
		<stop  offset="0.2944" style="stop-color:#9A773C"/>
		<stop  offset="0.3939" style="stop-color:#DEC471"/>
		<stop  offset="0.5152" style="stop-color:#F8EFD4"/>
		<stop  offset="0.6147" style="stop-color:#DEC471"/>
		<stop  offset="0.8095" style="stop-color:#9A773C"/>
		<stop  offset="1" style="stop-color:#533015"/>
	</linearGradient>
	<circle class="st3" cx="69.2" cy="20.2" r="20.2"/>
	<ellipse transform="matrix(0.9239 -0.3827 0.3827 0.9239 -2.4796 28.0224)" class="st1" cx="69.2" cy="20.2" rx="18" ry="18"/>
	<g>
		<path class="st2" d="M70.6,11.1c-1.7,0.2-3.4,0.4-5.2,0.6v1.2h5.2v2.5h-5.2V16h4.8v8.8h-4.8v0.8h4.4V28h-4.4v0.8
			c1.6-0.1,3-0.2,4.2-0.2l0.2,0.9c1.1-1.3,1.9-3,2.5-4.9c0.6-2,1-4.7,1.1-8.2h-2.4v-2.7h2.4V9h3v4.7h4.1c-0.1,7.1-0.3,12.4-0.9,16
			c-0.2,0.8-0.5,1.5-1.1,1.9c-0.6,0.4-1.3,0.7-2.2,0.7c-0.6,0-1.3-0.1-2-0.3l-0.3-2.8c0.9,0.3,1.7,0.5,2.3,0.5
			c0.2,0,0.4-0.1,0.5-0.4c0.1-0.2,0.2-0.8,0.3-1.8c0.3-3.4,0.4-7.1,0.4-11h-1.2c-0.1,4.1-0.6,7.4-1.5,10c-0.8,2.3-1.9,4.2-3.5,5.7
			L70,30.5l0.1,0.5c-3.6,0.4-7.7,0.7-12.1,1l-0.5-2.8c1.9-0.1,3.6-0.1,5.3-0.2V28h-4.9v-2.4h4.9v-0.8h-4.9V16h4.9v-0.6h-5.4v-2.5
			h5.4v-0.9c-1.4,0.1-2.9,0.2-4.4,0.3l-0.9-2.4c4.3-0.2,8.3-0.6,11.9-1L70.6,11.1z M62.7,19.2v-0.7h-2.2v0.7H62.7z M62.7,22.2v-0.7
			h-2.2v0.7H62.7z M65.5,19.2h2.1v-0.7h-2.1V19.2z M65.5,22.2h2.1v-0.7h-2.1V22.2z"/>
	</g>
	<linearGradient id="SVGID_3_" gradientUnits="userSpaceOnUse" x1="97.9106" y1="20.2442" x2="138.3988" y2="20.2442">
		<stop  offset="0" style="stop-color:#533015"/>
		<stop  offset="9.523810e-02" style="stop-color:#66431E"/>
		<stop  offset="0.2944" style="stop-color:#9A773C"/>
		<stop  offset="0.3939" style="stop-color:#DEC471"/>
		<stop  offset="0.5152" style="stop-color:#F8EFD4"/>
		<stop  offset="0.6147" style="stop-color:#DEC471"/>
		<stop  offset="0.8095" style="stop-color:#9A773C"/>
		<stop  offset="1" style="stop-color:#533015"/>
	</linearGradient>
	<circle class="st4" cx="118.2" cy="20.2" r="20.2"/>
	<ellipse transform="matrix(0.9871 -0.1602 0.1602 0.9871 -1.7171 19.1875)" class="st1" cx="118.2" cy="20.2" rx="18" ry="18"/>
	<g>
		<path class="st2" d="M113.9,25.9c-1.6,2-3.4,3.6-5.6,4.9l-1.6-2.8c1.8-1,3.4-2.3,4.8-4.1L113.9,25.9z M119.7,8.9v2h9.6v5.6h-3
			v-2.7h-16.4v2.7h-3v-5.6h9.7v-2H119.7z M129,20.3v2.9h-9.3v5.2c0,1.5-0.2,2.5-0.7,3c-0.6,0.6-1.6,0.9-3,0.9c-1,0-1.9-0.1-2.8-0.3
			l-0.5-3c0.9,0.3,1.9,0.4,2.8,0.4c0.4,0,0.7-0.1,0.8-0.3c0.1-0.3,0.2-0.8,0.2-1.4v-4.5h-9.7v-2.9H129z M125.3,15.5v3h-14.9v-3
			H125.3z M126.8,26.4c0.8,0.7,1.5,1.2,2.3,1.6l-1.7,2.9c-0.9-0.6-1.7-1.2-2.4-2c-1-0.9-1.8-2-2.6-3.1l2.2-1.8
			C125.2,24.9,126,25.7,126.8,26.4z"/>
	</g>
	<linearGradient id="SVGID_4_" gradientUnits="userSpaceOnUse" x1="146.8659" y1="20.2442" x2="187.3541" y2="20.2442">
		<stop  offset="0" style="stop-color:#533015"/>
		<stop  offset="9.523810e-02" style="stop-color:#66431E"/>
		<stop  offset="0.2944" style="stop-color:#9A773C"/>
		<stop  offset="0.3939" style="stop-color:#DEC471"/>
		<stop  offset="0.5152" style="stop-color:#F8EFD4"/>
		<stop  offset="0.6147" style="stop-color:#DEC471"/>
		<stop  offset="0.8095" style="stop-color:#9A773C"/>
		<stop  offset="1" style="stop-color:#533015"/>
	</linearGradient>
	<circle class="st5" cx="167.1" cy="20.2" r="20.2"/>
	<ellipse transform="matrix(0.9239 -0.3827 0.3827 0.9239 4.9734 65.4913)" class="st1" cx="167.1" cy="20.2" rx="18" ry="18"/>
	<g>
		<path class="st2" d="M160.4,9v2.3c5-0.6,9.6-1.4,14-2.3l1.8,2.5c-4.8,1-10.1,1.8-15.8,2.5v0.2c0,0.7,0.5,1,1.5,1
			c1,0.1,3,0.1,6.1,0.1c2.5,0,4,0,4.5-0.1c0.6-0.1,1.2-0.1,1.8-0.2c0.4-0.1,0.8-0.8,1-2.1l2.9,1.3c-0.4,1.8-0.9,2.9-1.6,3.3
			c-0.8,0.3-2.2,0.5-4.4,0.6c-1,0.1-2.5,0.1-4.3,0.1c-4.6,0-7-0.1-7.2-0.2c-2.2,0-3.3-1.1-3.3-3.2V9H160.4z M176.2,32.5h-2.9v-1
			h-12.2v1h-2.9V19.4h18V32.5z M173.3,24v-1.7h-12.2V24H173.3z M173.3,28.6v-1.8h-12.2v1.8H173.3z"/>
	</g>
</g>
</svg>
