<?xml version="1.0" encoding="utf-8"?>
<!-- Generator: Adobe Illustrator 25.0.1, SVG Export Plug-In . SVG Version: 6.00 Build 0)  -->
<svg version="1.1" id="圖層_1" xmlns="http://www.w3.org/2000/svg" xmlns:xlink="http://www.w3.org/1999/xlink" x="0px" y="0px"
	 viewBox="0 0 238.9 50.7" style="enable-background:new 0 0 238.9 50.7;" xml:space="preserve">
<style type="text/css">
	.st0{fill:#96752A;}
</style>
<g>
	<path class="st0" d="M7.3,26.7l-1.2-7h1.6c1-0.1,1.6-0.7,2.1-1.6l1.2-4.3H7.1l-1.2-7h1.6c1-0.1,1.6-0.7,2.1-1.6l1.6-4.9h8.6
		l-3.1,9.6c-0.5,1.9-1.6,3.1-3.3,3.7h6.4L17,22.8c-0.1,0.4-0.3,0.8-0.4,1.2h1.6v26.2H9.6V26.7H7.3z M21.7,39.2V33h23.2v-2.7H21.7
		v-5.7h34.7v5.7h-2.9V33h3.1v6.2h-3.1v6.2c0,1.2-0.5,2.3-1.4,3.3c-1,1.1-2.1,1.6-3.5,1.6h-8.8l-1-6.2H43c0.8,0,1.3-0.2,1.4-0.6
		c0.3-0.3,0.4-0.7,0.4-1.2v-3.1H21.7z M22.9,16.6V0.8h4.3h4.3h15.2H51h4.3v16.4c-0.1,3.4-1.8,5.1-5.1,5.1H22.9v-2.9V16.6z
		 M32.7,43.1c0.3,0.7,0.9,1,1.8,1h1.6v5.1h-6.4c-2.9,0-4.6-1.1-5.1-3.3L23.3,41h8.8L32.7,43.1z M46.7,8.8V6.6H31.5v2.3H46.7z
		 M31.5,14.2v2.5h13.9c0.8,0,1.2-0.4,1.2-1.2v-1.2H31.5z"/>
	<path class="st0" d="M67.1,22.6v-6.2h13.1v-3.1H68.3v-3.1V7.2V0.4h7.8v6.8h4.1V0h8.6v32h-8.6v-9.4h-3.1v4.9c-0.1,1.1-0.5,2.1-1,2.9
		c-1,1.1-2.1,1.6-3.3,1.6h-5.3l-0.8-5.3h1c0.4-0.1,0.8-0.3,1.2-0.4c0.1-0.4,0.2-0.8,0.2-1.2v-2.5H67.1z M116.9,34.9V41H95.6
		l-2.3,2.1h8.8h0.2c0.5,1,1.3,1.4,2.3,1.4h12.3v5.7h-15.8c-3-0.1-5.3-1.4-7-3.9l-1.6-2.7l-4.1,3.7c-1.8,1.9-3.8,2.9-5.9,2.9H67.9
		l-1-5.7h11.1c1.2,0,2.3-0.4,3.1-1.2l2.7-2.3H67.3v-6.2h20.3V33h8.8v1.8h9.2l-0.6-1.4h8.2l0.4,1.4H116.9z M102.6,13.3h0.4l-2.7-4.7
		h4.9l0.8,1.6l1.8-3.5h-7.8c-1,1.8-2.5,2.7-4.5,2.7h-3.9l-1.2-5.3h0.8c1.4-0.1,2.3-0.7,2.7-1.6L96,0h8.6l-1.2,1.6h13.1v5.5l-4.9,8.8
		c-0.5,0.5-1.2,1-2.1,1.4h5.3v2.1h2.1v4.9h-2.1v3.5c0,1.1-0.4,2.1-1.2,3.1c-0.8,1-1.9,1.4-3.3,1.4h-5.5l-0.6-4.5h0.4
		c0.7-0.1,1.1-0.3,1.2-0.4c0.3-0.3,0.4-0.7,0.4-1.2v-1.8H90.9v-4.9h15.4v-1.6H91.9l-1-4.5H96l-1.6-2.7h5.3l1.4,2.7H102.6z
		 M99.7,27.3c0.4,0.4,1.1,0.6,2.1,0.6h1v3.7H98c-2.5-0.1-4.2-0.7-5.1-1.6l-1.4-3.9h7.8L99.7,27.3z"/>
	<path class="st0" d="M157.4,18.9c1.6-0.1,2.7-0.5,3.3-1l4.9-8h-26c-1.2,2.5-2.9,3.7-5.1,3.7h-6.2l-1.2-7h2.5
		c1.5-0.1,2.5-0.7,3.1-1.6l2.7-4.9h9.2L143,2.9h32.6v7.4l-8,13.3c-1.2,1.5-3.1,2.3-5.7,2.3h-33.2l-1-7h17.6l-3.9-6.2h9.8l3.9,6.2
		H157.4z M128.9,43.3V28.7h4.3h4.3h29.7h4.3h4.3v16.4c-0.1,3.4-1.8,5.1-5.1,5.1h-41.8v-3.5V43.3z M166,43.3c0.8,0,1.2-0.4,1.2-1.2
		v-6.4h-29.7v7.6H166z"/>
	<path class="st0" d="M187.8,47v-6.2h20.7v-2.5h-19.5v-2.9v-2.9V17.2h4.3h4.3h30.1h4.3h4.3v16c-0.1,3.4-1.8,5.1-5.1,5.1h-14.2v2.5
		h20.7V47h-20.7v3.3h-8.6V47H187.8z M188.9,9.9v-9h4.3h4.1h5.7h4.3h4.1v9.2c0,3.4-1.6,5.1-4.9,5.1h-17.6v-2.7V9.9z M201.8,9.9
		c0.8,0,1.2-0.4,1.2-1.2V6.2h-5.7v3.7H201.8z M208.5,23h-10.9v2.3h10.9V23z M208.5,30.2h-10.9v2.5h10.9V30.2z M213.9,9.6V0.8h4.3
		h4.1h5.7h4.3h4.1v9c0,3.4-1.6,5.1-4.9,5.1h-17.6v-2.7V9.6z M217.2,25.2h10.7V23h-10.7V25.2z M217.2,32.6h9.4c0.8,0,1.2-0.4,1.2-1.2
		v-1.2h-10.7V32.6z M226.8,9.6c0.8,0,1.2-0.4,1.2-1.2V6.2h-5.7v3.5H226.8z"/>
</g>
</svg>
